<svg xmlns="http://www.w3.org/2000/svg" width="166" height="47" viewBox="0 0 166 47"><g transform="translate(-29 -25)"><text transform="translate(83 57)" fill="#dddde3" font-size="23" font-family="Poppins-Bold, Poppins" font-weight="700"><tspan x="0" y="0">Silint</tspan><tspan y="0" font-family="Poppins-Regular, Poppins" font-weight="400">Web</tspan></text><g transform="translate(29 25.013)"><rect width="47" height="47" transform="translate(0 -0.013)" fill="#fff" opacity="0"/><g transform="translate(2.974 3.637)"><path d="M36.587,26.553a9.956,9.956,0,0,1,12.209,0l4.325,3.357a9.956,9.956,0,0,0,.886.614l4.127,2.54A9.956,9.956,0,0,1,62.14,45.286L60.471,49.4a9.956,9.956,0,0,0-.367,1.076l-1.3,4.659a9.956,9.956,0,0,1-10.114,7.275l-5.482-.288a9.956,9.956,0,0,0-1.044,0l-5.482.288a9.956,9.956,0,0,1-10.114-7.275l-1.3-4.659a9.957,9.957,0,0,0-.367-1.076l-1.669-4.113a9.956,9.956,0,0,1,4.006-12.222l4.127-2.54a9.956,9.956,0,0,0,.886-.614Z" transform="translate(-22.51 -24.462)" fill="#005aff"/><path d="M11.4.1c3.985,1-3.256,6.1-3.256,11.678s7.363,9.384,3.256,10.614S0,17.216,0,11.643,7.417-.906,11.4.1Z" transform="matrix(0.891, 0.454, -0.454, 0.891, 16.094, 0.74)" fill="#fff"/><path d="M11.4.1c3.985,1-3.256,6.1-3.256,11.678s7.363,9.384,3.256,10.614S0,17.216,0,11.643,7.417-.906,11.4.1Z" transform="matrix(-0.891, -0.454, 0.454, -0.891, 25.354, 39.121)" fill="#fff"/></g></g></g></svg>